<svg width="118" height="39" viewBox="0 0 118 39" fill="none" xmlns="http://www.w3.org/2000/svg">
<g clip-path="url(#clip0_1729_765)">
<path d="M15.2097 1.5235e-05C6.94792 1.5235e-05 0.00012207 6.72932 0.00012207 14.9911C0.00012207 23.2528 6.94792 29.9821 15.2097 29.9821C19.667 29.9821 23.0316 28.5195 25.6651 25.7772C28.3725 23.0697 29.2128 19.2697 29.2128 16.1966C29.2128 15.2825 29.1429 14.4382 29.0079 13.7243H15.2046V17.8204L24.9943 17.8162C24.6939 20.0753 23.9323 21.7296 22.7745 22.8874C21.3467 24.3152 19.1178 25.886 15.2046 25.886C9.17149 25.886 4.45331 21.0241 4.45331 14.9911C4.45331 8.95797 9.17149 4.09612 15.2046 4.09612C18.4605 4.09612 20.8375 5.37532 22.5917 7.02071L25.4823 4.13098C23.036 1.79349 19.7802 0 15.2097 0V1.5235e-05ZM93.6481 1.10099V29.3946H97.7833V1.10099H93.6481ZM108.67 10.6731C103.694 10.6731 99.5635 14.5861 99.5635 20.3276C99.5635 25.7426 103.66 29.9821 109.144 29.9821C113.567 29.9821 116.126 27.2746 117.188 25.7032L113.897 23.5098C112.8 25.1203 111.303 26.1819 109.144 26.1819C106.989 26.1819 105.453 25.1943 104.465 23.2573L117.371 17.9114L116.932 16.8147C116.131 14.66 113.68 10.6731 108.67 10.6731ZM40.543 10.6773C35.2064 10.6773 30.8579 14.7341 30.8579 20.3318C30.8579 25.8905 35.2064 29.9864 40.543 29.9864C45.8797 29.9864 50.2282 25.8905 50.2282 20.3318C50.2282 14.7341 45.8797 10.6773 40.543 10.6773ZM61.4368 10.6773C56.1002 10.6773 51.7517 14.7384 51.7517 20.3318C51.7517 25.8905 56.1002 29.9864 61.4368 29.9864C66.7734 29.9864 71.122 25.8905 71.122 20.3318C71.122 14.7341 66.7734 10.6773 61.4368 10.6773ZM81.8868 10.6773C77.0595 10.6773 72.637 14.9169 72.637 20.3667C72.637 25.7773 77.0595 29.9821 81.8868 29.9821C84.1938 29.9821 86.0219 28.9596 86.9708 27.7887H87.1188V29.177C87.1188 32.8726 85.147 34.8358 81.965 34.8358C79.3707 34.8358 77.7602 32.9818 77.1029 31.4104L73.4115 32.9467C74.4736 35.5062 77.2899 38.636 81.9693 38.636C86.9403 38.636 91.1452 35.7238 91.1452 28.5938V11.2648H87.1188V12.8367H86.9708C86.0175 11.7006 84.1895 10.6773 81.8868 10.6773V10.6773ZM108.813 14.4079C110.494 14.4079 111.922 15.2476 112.396 16.4534L103.768 20.036C103.66 16.3099 106.659 14.4079 108.813 14.4079ZM40.543 14.4818C43.4682 14.4818 45.9884 16.8582 45.9884 20.3318C45.9884 23.7662 43.4682 26.1819 40.543 26.1819C37.6179 26.1819 35.0977 23.7706 35.0977 20.3318C35.0977 16.8582 37.6179 14.4818 40.543 14.4818ZM61.4368 14.4818C64.3619 14.4818 66.8822 16.8582 66.8822 20.3318C66.8822 23.7662 64.3619 26.1819 61.4368 26.1819C58.5117 26.1819 55.9915 23.7706 55.9915 20.3318C55.9915 16.8582 58.5117 14.4818 61.4368 14.4818ZM82.2651 14.4818C85.1511 14.4818 87.4189 16.9671 87.4189 20.3667C87.4189 23.7315 85.1511 26.1819 82.2651 26.1819C79.34 26.1819 76.8895 23.7315 76.8895 20.3667C76.8895 16.9671 79.34 14.4818 82.2651 14.4818Z" fill="#E8590C"/>
</g>
<defs>
<clipPath id="clip0_1729_765">
<rect width="117.371" height="38.636" fill="white"/>
</clipPath>
</defs>
</svg>
