<svg width="40" height="40" viewBox="0 0 40 40" fill="none" xmlns="http://www.w3.org/2000/svg">
<circle cx="20" cy="20" r="20" fill="#DCE9E2"/>
<path fill-rule="evenodd" clip-rule="evenodd" d="M20 10C17.8783 10 15.8434 10.8429 14.3431 12.3432C12.8429 13.8435 12 15.8783 12 18C12 21.0981 14.0157 24.1043 16.226 26.4373C17.3106 27.5822 18.3987 28.5195 19.2167 29.1709C19.5211 29.4133 19.787 29.6152 20 29.7726C20.213 29.6152 20.4789 29.4133 20.7833 29.1709C21.6013 28.5195 22.6894 27.5822 23.774 26.4373C25.9843 24.1043 28 21.0981 28 18C28 15.8783 27.1571 13.8435 25.6569 12.3432C24.1566 10.8429 22.1217 10 20 10ZM20 31C19.4453 31.8321 19.445 31.8319 19.4448 31.8317L19.4419 31.8298L19.4352 31.8253L19.4123 31.8098C19.3928 31.7966 19.3651 31.7776 19.3296 31.753C19.2585 31.7038 19.1565 31.6321 19.0278 31.5392C18.7705 31.3534 18.4064 31.0822 17.9708 30.7354C17.1013 30.043 15.9394 29.0428 14.774 27.8128C12.4843 25.3958 10 21.902 10 18C10 15.3479 11.0536 12.8043 12.9289 10.9289C14.8043 9.05358 17.3478 8.00002 20 8.00002C22.6522 8.00002 25.1957 9.05358 27.0711 10.9289C28.9464 12.8043 30 15.3479 30 18C30 21.902 27.5157 25.3958 25.226 27.8128C24.0606 29.0428 22.8987 30.043 22.0292 30.7354C21.5936 31.0822 21.2295 31.3534 20.9722 31.5392C20.8435 31.6321 20.7415 31.7038 20.6704 31.753C20.6349 31.7776 20.6072 31.7966 20.5877 31.8098L20.5648 31.8253L20.5581 31.8298L20.556 31.8312C20.5557 31.8314 20.5547 31.8321 20 31ZM20 31L20.5547 31.8321C20.2188 32.056 19.7807 32.0556 19.4448 31.8317L20 31Z" fill="#00856F"/>
<path fill-rule="evenodd" clip-rule="evenodd" d="M25 18C25 20.7615 22.7614 23 20 23C17.2386 23 15 20.7615 15 18C15 15.2386 17.2386 13 20 13C22.7614 13 25 15.2386 25 18ZM23 18C23 19.6569 21.6569 21 20 21C18.3431 21 17 19.6569 17 18C17 16.3432 18.3431 15 20 15C21.6569 15 23 16.3432 23 18Z" fill="#00856F"/>
</svg>
